<svg xmlns="http://www.w3.org/2000/svg" xmlns:xlink="http://www.w3.org/1999/xlink" width="100" height="100" viewBox="0 0 100 100"><rect width="100%" height="100%" fill="#ffffff"></rect><g transform="translate(50 50) scale(0.69 0.69) rotate(0) translate(-50 -50)" style="fill:#ee5859"><svg fill="#ee5859" xmlns="http://www.w3.org/2000/svg" viewBox="0 0 48 48" x="0px" y="0px"><title>Asset 380</title><g data-name="Layer 2"><g><path d="M43.41992,32H43V29a5.00181,5.00181,0,0,0-5-5H33V21.01A3.013,3.013,0,0,0,29.99,18H3.01A3.013,3.013,0,0,0,0,21.01V44H5a5.9741,5.9741,0,0,1,2.73-5.03A5.99932,5.99932,0,0,1,17,44H29a6,6,0,0,1,12,0h5.47A1.5236,1.5236,0,0,0,48,42.47V36.58A4.57936,4.57936,0,0,0,43.41992,32ZM40,32H33V27h4.11A2.885,2.885,0,0,1,40,29.89Z"></path><path d="M11,40a4,4,0,1,0,4,4A3.98891,3.98891,0,0,0,11,40Z"></path><path d="M35,40a4,4,0,1,0,4,4A3.99,3.99,0,0,0,35,40Z"></path><path d="M1.5,10H42.75232L38.4021,14.34985a1.55232,1.55232,0,1,0,2.19531,2.19532L47.54517,9.5979a1.55192,1.55192,0,0,0,0-2.19531L40.59741.45483A1.55232,1.55232,0,0,0,38.4021,2.65015L42.752,7H1.5a1.5,1.5,0,0,0,0,3Z"></path></g></g></svg></g></svg>