<svg xmlns="http://www.w3.org/2000/svg" xmlns:xlink="http://www.w3.org/1999/xlink" width="100" height="100" viewBox="0 0 100 100"><rect width="100%" height="100%" fill="#ffffff"></rect><g transform="translate(50 50) scale(0.69 0.69) rotate(0) translate(-50 -50)" style="fill:#ee5859"><svg fill="#ee5859" xmlns="http://www.w3.org/2000/svg" viewBox="0 0 37 48" x="0px" y="0px"><title>Asset 963</title><g data-name="Layer 2"><g><path d="M12.5022,6.99878a1.5,1.5,0,0,0,1.5-1.5V1.5a1.5,1.5,0,0,0-3,0V5.49878A1.5,1.5,0,0,0,12.5022,6.99878Z"></path><path d="M5.4989,10.99548H1.5a1.5,1.5,0,0,0,0,3H5.4989a1.5,1.5,0,0,0,0-3Z"></path><path d="M5.55957,3.43823A1.5,1.5,0,0,0,3.43823,5.55957L6.44116,8.56238A1.5,1.5,0,1,0,8.5625,6.44116Z"></path><path d="M11,22a2,2,0,0,0,4,0,7.40365,7.40365,0,0,1,5-7L16,33.98A.92.92,0,0,0,16.99,35h2V46a2,2,0,0,0,4,0V10C15.98,10.42993,11,15.36,11,22Z"></path><path d="M19.99,4a4.14548,4.14548,0,0,0,3,4V0A4.14548,4.14548,0,0,0,19.99,4Z"></path><path d="M25.01,10V46a2,2,0,0,0,4,0V15A7.85669,7.85669,0,0,1,33,22a2,2,0,0,0,4,0C37,15.36,32.01,10.42993,25.01,10Z"></path><path d="M28.01,4a4.14548,4.14548,0,0,0-3-4V8A4.14548,4.14548,0,0,0,28.01,4Z"></path></g></g></svg></g></svg>