<svg xmlns="http://www.w3.org/2000/svg" xmlns:xlink="http://www.w3.org/1999/xlink" width="100" height="100" viewBox="0 0 100 100"><rect width="100%" height="100%" fill="#ffffff"></rect><g transform="translate(50 50) scale(0.69 0.69) rotate(0) translate(-50 -50)" style="fill:#ee5859"><svg fill="#ee5859" xmlns="http://www.w3.org/2000/svg" viewBox="0 0 34 48.00006" x="0px" y="0px"><title>Asset 499</title><g data-name="Layer 2"><g><path d="M17.42993.21a.54506.54506,0,0,0-.85986,0C13.92993,3.61005,0,21.92,0,30.61005a17.20029,17.20029,0,0,0,17,17.39,17.20029,17.20029,0,0,0,17-17.39C34,21.92,20.07007,3.61005,17.42993.21ZM21.5,41.00006a1.5,1.5,0,0,1,0-3c2.48,0,4.5-2.47,4.5-5.5a1.5,1.5,0,0,1,3,0C29,37.19,25.64,41.00006,21.5,41.00006Z"></path></g></g></svg></g></svg>