<?xml version="1.0" encoding="utf-8"?>
<!-- Generator: Adobe Illustrator 24.0.2, SVG Export Plug-In . SVG Version: 6.00 Build 0)  -->
<svg version="1.1" id="Layer_1" xmlns="http://www.w3.org/2000/svg" xmlns:xlink="http://www.w3.org/1999/xlink" x="0px" y="0px"
	 viewBox="0 0 100 100" style="enable-background:new 0 0 100 100;" xml:space="preserve">
<style type="text/css">
	.st0{fill:#58595B;}
</style>
<title>Asset 619</title>
<g>
	<g>
		<path class="st0" d="M85.1,59.4L68.8,27.1H31.3L14.9,59.4c-4.7,10.8-2.3,23.4,5.9,31.8c5.5,5.7,13,8.9,20.9,8.8h16.7
			c7.9,0,15.4-3.1,20.9-8.8C87.4,82.8,89.8,70.2,85.1,59.4z M52.1,79.2v3.1c0,1.7-1.4,3.1-3.1,3.1s-3.1-1.4-3.1-3.1v-3.1h-1
			c-1.7,0-3.1-1.4-3.1-3.1s1.4-3.1,3.1-3.1h6.1c1.7,0.1,3.2-1.3,3.2-3c0.1-1.7-1.3-3.2-3-3.2c-0.1,0-0.1,0-0.2,0h-1.9
			c-5.2,0.1-9.4-4.1-9.5-9.2c-0.1-4,2.5-7.6,6.2-9v-3.7c0-1.7,1.4-3.1,3.1-3.1c1.7,0,3.1,1.4,3.1,3.1v3.1h3.1c1.7,0,3.1,1.4,3.1,3.1
			s-1.4,3.1-3.1,3.1h-6.1c-1.7-0.1-3.2,1.3-3.2,3c-0.1,1.7,1.3,3.2,3,3.2c0.1,0,0.2,0,0.2,0h1.9c5.2,0,9.4,4.1,9.5,9.3
			C60.5,74.6,56.9,78.6,52.1,79.2L52.1,79.2z"/>
		<path class="st0" d="M31.2,22.9h16.7L44.5,7.4c-0.4-1.9-2.1-3.3-4.1-3.3H29.2c-1.2,0-2.1,0.9-2.1,2.1c0,0.2,0,0.3,0,0.5L31.2,22.9
			z"/>
		<path class="st0" d="M60.4,22.9h8.3l4.1-20.5c0.2-1.1-0.6-2.2-1.7-2.4c-0.1,0-0.2,0-0.4,0h-6.2c-2.3,0-4.1,1.9-4.2,4.2
			c0-2.3-1.9-4.1-4.1-4.2H50c-1.2,0-2.1,0.9-2.1,2.1c0,0.1,0,0.2,0,0.4l4.1,20.5H60.4z"/>
	</g>
</g>
</svg>
