<?xml version="1.0" encoding="utf-8"?>
<!-- Generator: Adobe Illustrator 24.0.2, SVG Export Plug-In . SVG Version: 6.00 Build 0)  -->
<svg version="1.1" id="Layer_1" xmlns="http://www.w3.org/2000/svg" xmlns:xlink="http://www.w3.org/1999/xlink" x="0px" y="0px"
	 viewBox="0 0 100 100" style="enable-background:new 0 0 100 100;" xml:space="preserve">
<style type="text/css">
	.st0{fill:#58595B;}
</style>
<title>Asset 382</title>
<g>
	<g>
		<path class="st0" d="M99.1,47.7L84.6,33.2c-1.3-1.3-3.3-1.3-4.6,0c-1.3,1.3-1.3,3.3,0,4.6l0,0l9.1,9.1H61.5
			c-1.7,0-3.1,1.4-3.1,3.1s1.4,3.1,3.1,3.1h27.6L80,62.2c-1.3,1.3-1.3,3.3,0,4.6c1.3,1.3,3.3,1.3,4.6,0l14.5-14.5
			C100.3,51,100.3,49,99.1,47.7C99.1,47.7,99.1,47.7,99.1,47.7z"/>
		<path class="st0" d="M62.1,11c-1.4-4.4-6.1-6.7-10.5-5.3s-6.7,6.1-5.3,10.5c1.4,4.4,6.1,6.7,10.5,5.3c0,0,0,0,0,0
			C61.1,20,63.5,15.3,62.1,11z"/>
		<path class="st0" d="M43.2,54.2L51.4,38c2.5-5,0.5-11.1-4.5-13.6l-5.3-2.7c-0.3-0.1-0.6-0.2-0.9-0.3C26.4,15.1,9.7,21,2.6,34.9
			c-1.1,2.1-0.2,4.7,1.9,5.8c2.1,1.1,4.7,0.2,5.8-1.9c4-7.8,12.5-12.3,21.2-11.2l-31,60.8c-1.1,2.1-0.2,4.8,1.9,5.9
			c2.1,1.1,4.8,0.2,5.9-1.9c0,0,0,0,0,0l18.8-36.9l9.3,4.7c10.1,5.5,13.9,18,8.7,28.2c-1.1,2.1-0.3,4.8,1.8,5.9
			c2.1,1.1,4.8,0.3,5.9-1.8c0,0,0,0,0,0C59.7,79.1,55.6,62.7,43.2,54.2z"/>
	</g>
</g>
</svg>
