<?xml version="1.0" encoding="utf-8"?>
<!-- Generator: Adobe Illustrator 24.0.2, SVG Export Plug-In . SVG Version: 6.00 Build 0)  -->
<svg version="1.1" id="Layer_1" xmlns="http://www.w3.org/2000/svg" xmlns:xlink="http://www.w3.org/1999/xlink" x="0px" y="0px"
	 viewBox="0 0 100 100" style="enable-background:new 0 0 100 100;" xml:space="preserve">
<style type="text/css">
	.st0{fill:#58595B;}
</style>
<title>Asset 351</title>
<g>
	<g>
		<path class="st0" d="M93.8,10.4c-3.4,0-6.2,2.8-6.3,6.3V50l-10,10.1c-0.5,1-1.7,1.4-2.7,0.8c-0.2-0.1-0.4-0.3-0.6-0.5
			c-1-1-1-2.6,0-3.6l8.4-8.6c1.7-1.7,1.7-4.5,0-6.2c-1.7-1.7-4.4-1.7-6.1-0.1c0,0-0.1,0-0.1,0.1L60.1,58.6c-2.6,2.7-4,6.4-3.8,10.1
			h0V100H75V79.9c1.3-0.6,2.5-1.5,3.5-2.5l19.7-20c1.2-1.2,1.8-2.8,1.8-4.4V16.7C100,13.2,97.2,10.4,93.8,10.4z"/>
		<path class="st0" d="M39.9,58.6L23.5,42c-1.7-1.7-4.4-1.7-6.1-0.1c0,0-0.1,0-0.1,0.1c-1.7,1.7-1.7,4.5,0,6.3l8.4,8.6
			c1,1,1,2.6,0,3.6c-1,1-2.5,1-3.5,0c0,0,0,0,0,0L12.5,50V16.7c0-3.4-2.8-6.2-6.3-6.3c-3.4,0-6.2,2.8-6.3,6.3v36.2
			c0,1.7,0.6,3.2,1.8,4.4l19.7,20c1,1,2.2,1.9,3.5,2.5V100h18.8V68.8h0C43.9,65,42.6,61.3,39.9,58.6z"/>
		<circle class="st0" cx="50" cy="18.8" r="18.8"/>
	</g>
</g>
</svg>
